HIERARCHY
ROOT hip
{
	OFFSET 0.000000 0.000000 0.000000
	CHANNELS 6  Xposition Yposition Zposition Xrotation Zrotation Yrotation
	JOINT abdomen
	{
		OFFSET 0.000000 3.402643 0.000000
			CHANNELS 3 Xrotation Zrotation Yrotation
		JOINT chest
		{
			OFFSET 0.000000 8.438565 -0.680529
				CHANNELS 3 Xrotation Zrotation Yrotation
			JOINT neck
			{
				OFFSET 0.000000 10.207942 -0.272212
					CHANNELS 3 Xrotation Zrotation Yrotation
				JOINT head
				{
					OFFSET 0.000000 3.130431 0.000000
						CHANNELS 3 Xrotation Zrotation Yrotation
					End Site
					{
						OFFSET 0.000000 3.130435 0.000000
					}
				}
			}
			JOINT lCollar
			{
				OFFSET 3.470700 6.669187 -0.816635
					CHANNELS 3 Yrotation Zrotation Xrotation
				JOINT lShldr
				{
					OFFSET 3.198488 0.000000 0.000000
						CHANNELS 3 Zrotation Yrotation Xrotation
					JOINT lForeArm
					{
						OFFSET 10.139888 0.000000 0.000000
							CHANNELS 3 Yrotation Zrotation Xrotation
						JOINT lHand
						{
							OFFSET 8.370511 0.000000 0.000000
								CHANNELS 3 Zrotation Yrotation Xrotation
							End Site
							{
								OFFSET 4.083176 0.000000 0.000000
							}
						}
					}
				}
			}
			JOINT rCollar
			{
				OFFSET -3.470700 6.669187 -0.816635
					CHANNELS 3 Yrotation Zrotation Xrotation
				JOINT rShldr
				{
					OFFSET -3.198488 0.000000 0.000000
						CHANNELS 3 Zrotation Yrotation Xrotation
					JOINT rForeArm
					{
						OFFSET -10.139888 0.000000 0.000000
							CHANNELS 3 Yrotation Zrotation Xrotation
						JOINT rHand
						{
							OFFSET -8.370511 0.000000 0.000000
								CHANNELS 3 Zrotation Yrotation Xrotation
							End Site
							{
								OFFSET -4.083176 0.000000 0.000000
							}
						}
					}
				}
			}
		}
	}
	JOINT lThigh 
	{
		OFFSET 5.308129 -1.633274 1.361059
			CHANNELS 3 Xrotation Zrotation Yrotation
		JOINT lShin
		{
			OFFSET -2.041588 -20.007561 0.000000
				CHANNELS 3 Xrotation Zrotation Yrotation
			JOINT lFoot
			{
				OFFSET 0.000000 -19.190928 -1.224953
					CHANNELS 3 Xrotation Yrotation Zrotation
				End Site
				{
					OFFSET 0.000000 -2.449906 4.627600
				}
			}
		}
	}
	JOINT rThigh
	{
		OFFSET -5.308129 -1.633274 1.361059
			CHANNELS 3 Xrotation Zrotation Yrotation
		JOINT rShin
		{
			OFFSET 2.041588 -20.007561 0.000000
				CHANNELS 3 Xrotation Zrotation Yrotation
			JOINT rFoot
			{
				OFFSET 0.000000 -19.190928 -1.224953
					CHANNELS 3 Xrotation Yrotation Zrotation
				End Site
				{
					OFFSET 0.000000 -2.449906 4.627600
				}
			}
		}
	}
}
MOTION
Frames: 16
Frame Time: 0.032000
965.614441 47.272907 3414.897217 23.15 -5.65 14.56 3.88 1.31 -10.98 1.66 0.56 -4.70 -5.67 -0.09 5.26 6.32 1.10 5.28 1.47 -3.09 -0.10 -84.68 -14.67 7.50 -112.06 3.19 40.23 15.23 14.42 3.82 4.19 -6.41 -0.06 66.30 -32.82 18.44 86.94 -2.82 33.32 -33.41 10.54 -6.95 -28.32 0.65 0.45 43.40 -0.29 -3.20 0.90 -4.80 -12.15 -68.15 -10.39 -5.06 114.01 -4.38 3.25 -0.00 -0.00 0.00 
965.673645 48.622231 3415.068848 23.77 -7.58 14.47 3.44 3.97 -14.24 1.47 1.70 -6.10 -6.30 1.99 7.49 7.04 -1.97 7.80 2.87 -1.41 -0.10 -86.61 -18.89 8.50 -116.42 3.18 39.60 12.40 14.25 3.08 4.71 -8.81 -0.07 58.75 -41.52 24.91 88.40 -2.33 25.92 -32.79 11.43 -7.41 -19.91 4.17 0.32 37.36 -0.80 -2.45 10.54 -7.62 -10.68 -74.66 -6.26 -3.15 102.03 -3.70 3.43 -0.00 -0.00 0.00 
964.447937 49.082615 3410.601074 25.23 -9.53 14.31 3.82 6.54 -15.68 1.64 2.80 -6.72 -8.28 4.16 7.44 8.01 -4.81 8.13 2.98 -0.60 -0.15 -86.88 -22.35 11.07 -120.74 3.27 40.79 15.69 17.75 4.86 5.83 -12.08 -0.01 53.95 -49.95 28.36 89.33 -1.53 16.47 -29.69 14.31 -8.14 -15.35 6.94 1.33 34.19 -1.03 -2.49 15.44 -5.18 -10.65 -80.67 -2.78 0.21 93.96 -3.15 3.69 -0.00 -0.00 0.00 
972.311401 50.522980 3438.298340 25.78 -10.59 14.25 2.92 8.22 -15.27 1.24 3.52 -6.54 -7.20 4.14 8.36 7.88 -8.11 9.19 3.34 -0.55 -0.14 -85.07 -18.63 10.47 -122.36 3.16 40.70 19.82 19.31 6.69 7.85 -13.48 -0.04 53.37 -60.25 27.11 91.86 -2.31 25.48 -37.06 17.92 -13.30 -9.13 8.33 4.89 36.58 -0.73 -2.86 24.60 -3.21 -10.85 -76.77 -1.45 1.28 67.09 -1.40 3.69 -0.00 -0.00 0.00 
971.725220 50.634743 3436.228516 25.63 -8.80 14.25 3.73 8.91 -15.06 1.60 3.82 -6.46 -8.04 4.07 8.56 7.95 -9.82 9.25 3.68 -1.21 -0.10 -84.43 -14.94 8.88 -119.62 3.39 43.86 13.95 12.78 3.14 7.50 -12.83 -0.12 62.61 -61.13 14.48 92.39 -2.79 31.31 -37.63 20.57 -15.27 -10.20 6.14 3.43 56.17 0.09 -3.28 28.95 -5.65 -9.28 -68.95 -3.41 1.07 43.91 -0.05 2.83 -0.00 -0.00 0.00 
973.921997 49.745804 3443.988525 24.35 -7.57 14.40 4.13 9.44 -12.67 1.77 4.04 -5.43 -6.64 3.08 7.49 7.48 -11.96 8.26 2.72 -1.37 -0.10 -84.85 -9.04 10.61 -114.21 3.62 46.12 13.54 14.59 3.45 5.99 -9.89 -0.10 68.12 -53.59 6.10 93.35 -2.64 30.92 -33.52 17.87 -11.66 -12.66 3.69 3.69 79.59 1.28 -3.87 31.26 -4.24 -10.04 -61.55 -4.53 -1.34 33.97 0.86 2.21 -0.00 -0.00 0.00 
976.101074 48.143345 3451.656738 22.61 -8.64 14.61 3.38 11.19 -7.87 1.44 4.80 -3.36 -3.97 1.12 6.05 7.35 -13.84 6.60 1.93 -1.91 -0.11 -86.04 -1.20 13.13 -105.93 3.42 42.34 12.09 17.66 3.65 4.58 -5.42 -0.11 66.05 -40.89 4.83 94.25 -2.49 28.47 -28.45 10.87 -6.03 -17.52 4.46 6.87 102.71 2.55 -3.77 32.01 -1.83 -11.12 -54.49 -3.24 -7.31 36.87 0.54 2.28 -0.00 -0.00 0.00 
980.417664 46.190048 3466.859863 21.99 -11.74 14.73 3.01 13.45 -1.33 1.29 5.76 -0.57 -5.12 -0.66 4.96 6.68 -14.92 5.45 2.04 -3.29 -0.06 -86.05 6.59 13.67 -97.18 3.14 39.31 13.78 17.57 4.26 3.90 -1.62 -0.07 65.10 -21.50 5.68 95.26 -2.39 27.70 -27.10 11.81 -6.17 -31.42 8.23 7.96 121.96 3.86 -3.43 36.81 -7.31 -7.12 -49.49 0.38 -9.98 45.81 0.34 2.69 -0.00 -0.00 0.00 
979.760498 45.472088 3464.559326 21.63 -13.68 14.83 4.16 13.14 4.37 1.78 5.63 1.87 -7.45 -0.14 4.31 6.13 -16.04 5.13 0.95 -1.83 -0.14 -85.71 15.71 10.94 -93.18 3.05 37.60 15.01 21.11 5.54 5.52 -1.15 -0.06 69.27 -0.84 7.48 97.65 -2.63 30.30 -29.12 13.79 -7.66 -51.11 10.15 4.96 130.69 4.43 -3.09 39.79 -9.58 -4.99 -42.90 4.32 -6.13 50.10 0.09 3.16 -0.00 -0.00 0.00 
981.969116 46.247780 3472.342773 22.55 -11.22 14.65 3.84 10.21 7.95 1.64 4.37 3.41 -6.87 -0.49 2.07 7.47 -14.56 2.59 0.83 -0.41 -0.18 -80.07 25.62 15.02 -94.27 2.66 31.44 15.44 22.20 5.97 6.45 -3.83 -0.06 76.27 13.66 10.80 103.25 -2.55 30.50 -30.74 10.56 -6.31 -68.88 5.06 2.38 125.63 4.45 -3.11 36.15 -3.58 -9.88 -32.22 2.03 -2.79 48.10 -0.01 3.27 -0.00 -0.00 0.00 
986.777283 48.159630 3489.277832 23.92 -7.10 14.45 2.41 6.37 11.08 1.03 2.73 4.74 -5.25 -2.09 -1.99 9.26 -10.63 -1.91 -0.19 0.96 -0.05 -69.30 35.11 23.94 -99.80 2.72 32.30 13.40 20.16 4.70 4.75 -6.24 -0.01 78.34 19.57 15.40 110.83 -2.65 32.32 -31.30 9.30 -5.74 -75.31 -2.23 0.40 106.39 3.47 -3.53 28.52 -0.64 -12.02 -20.38 -3.89 -3.39 42.61 0.03 2.49 -0.00 -0.00 0.00 
986.599609 49.822784 3488.653076 25.13 -5.32 14.31 0.89 3.52 14.00 0.38 1.50 6.00 -4.76 -3.71 -5.04 9.89 -7.97 -5.19 -1.59 1.90 -0.12 -58.89 43.72 29.83 -106.13 2.28 27.05 12.07 18.85 3.94 3.35 -7.65 -0.08 76.83 19.40 17.84 117.22 -2.63 32.24 -30.58 10.32 -6.17 -74.68 -4.82 -1.75 81.01 1.65 -4.31 25.24 -2.14 -11.35 -12.83 -6.59 -5.26 41.27 0.16 2.46 -0.00 -0.00 0.00 
988.760925 50.639923 3496.273926 24.37 -6.80 14.40 0.61 2.06 16.60 0.25 0.88 7.11 -5.09 -4.46 -6.19 10.16 -5.18 -6.62 -2.27 2.27 -0.09 -51.59 51.20 31.89 -111.35 2.01 24.83 12.72 17.36 3.81 3.77 -8.10 -0.15 74.84 16.68 19.77 119.74 -2.54 31.70 -30.36 11.88 -7.05 -69.11 -2.01 -3.89 52.44 -0.34 -3.69 22.06 -2.34 -11.22 -9.13 -4.95 -5.01 50.08 0.00 3.04 -0.00 -0.00 0.00 
993.314331 50.072960 3512.314697 22.63 -8.01 14.60 1.56 0.61 16.18 0.67 0.26 6.93 -5.57 -3.14 -5.98 9.88 -3.41 -6.18 -2.14 2.49 -0.09 -56.91 51.37 23.98 -112.97 2.21 25.46 11.36 16.61 3.34 4.13 -7.33 -0.06 75.49 11.64 22.46 115.74 -2.60 31.35 -32.49 8.60 -5.66 -60.75 0.97 -3.25 30.12 -1.07 -2.50 23.26 -0.95 -11.94 -9.05 -3.07 -5.43 68.64 -1.13 3.23 -0.00 -0.00 0.00 
993.041992 48.713276 3511.352783 21.01 -7.84 14.77 1.66 -0.19 13.03 0.71 -0.08 5.58 -3.74 -2.22 -4.69 8.83 -1.33 -4.74 -0.93 0.51 -0.04 -64.00 44.84 17.42 -112.23 2.24 26.75 12.71 15.86 3.54 4.47 -6.73 -0.05 77.29 4.60 23.30 108.00 -2.63 31.45 -32.95 7.62 -5.13 -55.44 2.20 -0.34 26.99 -1.07 -2.46 23.54 -1.10 -11.97 -11.43 -3.08 -7.42 86.83 -2.54 3.34 -0.00 -0.00 0.00 
997.447449 46.772556 3526.878174 20.64 -7.35 14.81 1.14 -1.51 8.09 0.48 -0.64 3.46 -2.75 -1.26 -2.41 7.15 0.48 -2.35 1.20 -3.33 -0.12 -69.02 31.83 14.11 -110.76 2.50 29.33 13.24 15.69 3.59 4.91 -5.74 -0.03 78.71 -5.03 25.41 97.82 -2.60 29.38 -45.47 -0.54 0.36 -51.40 3.95 4.21 36.64 -0.98 -2.76 11.36 -7.07 -10.86 -20.14 -6.64 -8.65 106.79 -4.13 3.43 -0.00 -0.00 0.00 
